Patient4_TMGait_0pt5_02_left_16_EMG.mot
version=1
nRows=40
nColumns=33
inDegrees=no
endheader
time	1LAddLong	2LGlutMax	3LGlutMed	4LIliopsoas	5LSemiMemb	6LBicFemLong	7LRecFem	8LVastMed	9LVastLat	10LGasMed	11LTibAnt	12lTibPost	13LPeroneusLong	14LSol	15LExtDigLong	16LFlexDigLong	17RAddLong	18RGlutMax	19RGlutMed	20RIliopsoas	21RSemiMemb	22RBicFemLong	23RRecFem	24RVastMed	25RVastLat	26RGasMed	27RTibAnt	28RTibPost	29RPeroneusLong	30RSol	31RExtDigLong	32RFlexDigLong
20.26	0.019379	-0.050354	0.006104	0.007477	0.002289	0.016632	0.048065	0.003052	0.19852	-0.029297	-0.005798	-0.000763	0.05249	0.04715	-0.024261	-0.056305	-0.005035	-0.04425	1.0219	-0.039673	-0.00412	0.043335	0.59708	-0.24658	-0.96481	-0.021362	-0.037994	-0.009003	-0.29968	0.35309	-0.001526	-0.005798
20.261	0.009308	-0.051117	-0.018158	0.004425	-0.013123	0.02182	0.068207	0.004578	0.20081	-0.025177	0.024261	0.004883	0.036163	0.032806	0.005493	0.17212	0.002747	-0.043182	-0.049744	-0.009308	0.000458	0.025177	0.57159	0.24612	-0.59677	-0.02594	-0.15747	-0.005188	-0.16342	0.4567	-0.001678	-0.009613
20.262	0.00824	-0.05127	-0.002289	0.010071	-0.013733	0.009155	0.042419	0.001678	0.19928	-0.011597	0.066376	0.006256	0.053711	-0.028076	0.043488	-0.50537	-0.000458	-0.073853	-0.050964	-0.05722	0.000763	0.001678	0.3804	0.53406	-0.35248	-0.015717	0.003815	-0.008392	0.16296	0.22003	-0.00061	-0.004578
20.263	0.005646	-0.036316	-0.009766	0.018463	0.001984	0.00351	0.042572	0.008087	0.19073	-0.026245	0.051575	0.001984	0.035553	-0.062103	0.059052	-0.039215	-0.011749	-0.14313	0.22247	-0.03418	-0.00412	-0.051575	0.19882	0.61188	-0.18646	-0.007172	0.41168	-0.00412	0.54901	0.040131	0.000763	-0.011292
20.264	0.012665	-0.038452	-0.030518	-0.008545	0.012665	0.011902	0.029907	-0.032501	0.19058	-0.029602	0.007172	0.000916	0.034943	0.024567	0.031586	0.22476	-0.012817	-0.13702	0.32196	-0.075836	-0.002289	-0.016785	0.078583	0.41168	0.045624	-0.01236	0.56763	-0.00351	0.26627	0.010834	0.001373	-0.002136
20.265	0.014648	-0.036163	-0.044861	0.006714	0.019989	0.01709	0.027618	0.016174	0.18387	-0.040894	-0.003204	-0.002136	0.055237	-0.060883	-0.020447	0.10498	-0.012665	-0.11475	1.075	-0.13092	-0.022888	0.019379	-0.041046	0.12405	0.39291	-0.010681	0.43167	-0.003357	-0.45532	-0.005035	-0.000458	-0.007019
20.266	0.00824	-0.030975	-0.031281	0.005493	0.02121	0.019989	0.042725	0.008392	0.17914	-0.008698	-0.011292	0.00351	0.059814	-0.21942	-0.045776	0.046539	0.00824	-0.095825	0.6665	-0.12863	-0.032806	0.044708	-0.00885	-0.46616	0.46845	-0.001678	0.056458	-0.003662	-0.82428	-0.1088	-0.000916	-0.001068
20.267	0.043335	-0.024109	0.005493	-0.005493	0.00885	0.033875	0.020142	0.010529	0.15564	-0.005798	0.001373	-0.010834	0.079498	-0.26642	-0.018463	0.05188	0.008392	-0.1178	-0.59326	0.05661	-0.030518	0.11139	-0.099182	-0.83237	0.3804	0.00885	-0.21088	-0.000153	0.11704	-0.1416	0.000458	-0.002441
20.268	0.10559	0.02243	0.006866	0.004578	-0.000916	0.014954	0.024109	0.00473	0.15549	-0.022125	-0.031433	0.005188	0.12726	-0.36896	-0.012665	-0.57327	-0.006561	-0.12421	-0.69076	0.16678	-0.02533	0.14343	-0.37857	-0.74509	0.29511	0.005646	-0.13001	-0.000458	0.12695	-0.12405	0.001221	-0.003052
20.269	0.072021	0.032196	-0.017853	0.009155	-0.00885	0.001221	0.016022	0.006256	0.15762	-0.043182	-0.028076	0.007935	0.12207	-0.33844	-0.009766	0.11231	-0.013885	-0.12238	0.072174	0.02182	-0.014648	0.1619	-0.52902	-0.46219	0.26047	-0.00946	0.14908	-0.002899	0.50888	-0.046234	-0.000153	-0.011749
20.27	-0.011444	0.039368	-0.044708	0.008087	-0.018768	-0.00885	0.024261	0	0.15579	-0.037384	-0.009308	0.004425	0.11002	-0.16983	-0.002136	-0.071869	0.005798	-0.12894	0.5777	-0.009918	-0.031281	0.069733	-0.48859	-0.14236	0.18234	-0.018768	0.50446	-0.004578	-0.21912	-0.043335	-0.006409	-0.011292
20.271	-0.004272	0.076599	-0.066681	0.012817	-0.015106	-0.011749	0.02594	0.00824	0.15564	-0.007629	-0.007477	0.005646	0.10666	-0.017548	-0.013275	0.00946	0.006714	-0.15335	-0.34729	0.008545	-0.039673	-0.005646	-0.20874	0.18799	0.11505	-0.017395	0.77667	-0.002899	-0.87174	-0.042572	0.00061	-0.00885
20.272	0.009003	0.080719	-0.056305	-0.001221	-0.003357	-0.005951	0.016174	0.004272	0.14542	0.052185	-0.005798	0.002747	0.067749	0.007477	-0.007019	0.33371	0.014496	-0.13596	-0.020599	-0.025177	-0.037842	-0.089417	0.12817	0.14771	-0.1976	-0.012207	0.52887	-0.004425	-0.55618	-0.035248	-0.001221	-0.004578
20.273	0.011597	0.063324	-0.032501	0.005493	-0.016479	-0.035248	0.010223	0.005646	0.15106	0.079956	-0.000153	0.002289	0.044098	0.019226	-0.012665	0.046844	0.008087	-0.058441	0.50964	-0.021515	-0.01358	-0.090942	0.15045	0.22476	-0.37384	-0.010071	0.3949	0.000458	-0.48401	-0.083008	0.000916	-0.001373
20.274	0.006104	0.067291	-0.008392	0.005646	-0.005646	-0.023346	0.009003	0.005493	0.13931	0.038605	0.018158	0.000916	0.050049	-0.034027	-0.014954	0.004272	0.011749	-0.075989	0.33249	-0.014191	0.010681	-0.052948	0.077667	0.24399	-0.25192	-0.011444	0.29541	-0.003357	-0.10132	-0.010681	0.003204	-0.008698
20.275	0.015717	0.069427	0.042267	-0.003204	0.027618	-0.022888	0.005493	0.003662	0.14191	0.011444	0.036926	0.000305	0.046082	-0.027771	-0.026855	-0.016174	0.014496	-0.10666	-0.41138	0.019073	0.02533	-0.013733	0.09613	0.072327	-0.06012	-0.011902	-0.37674	-0.007629	0.49118	0.041962	0.001678	-0.005188
20.276	0.014038	0.094757	-0.000305	-0.003815	0.010223	0.00412	0.018463	-0.001221	0.13138	0.002747	0.058746	-0.001678	0.03067	-0.021973	-0.019379	-0.014496	0.005493	-0.12009	-0.70572	0.050049	-0.024719	0.02655	0.12711	-0.20935	-0.031128	-0.017395	-1.2466	0.001068	0.63873	0.054626	0.000763	-0.003967
20.277	0.019379	0.096436	-0.012054	0.00061	0.002747	0.01358	0.007935	0.006104	0.13779	-0.011444	0.037537	-0.001526	0.015564	0.035248	-0.030212	-0.020599	0.011597	-0.009003	-0.54855	0.027466	-0.0177	0.013275	0.048676	-0.32669	0.020142	-0.005341	-0.75546	0.000763	0.29297	0.006561	0.001068	-0.001831
20.278	0.014954	0.10193	-0.011139	0.015259	-0.006409	0.013733	0.005951	0.000458	0.13855	-0.026093	-0.032501	-0.002441	0.024719	0.078125	-0.03006	-0.013885	0.031738	0.010986	0.77606	-0.071411	0.00061	-0.010071	0.031433	-0.29083	-0.0177	0.002747	-0.11871	-0.000305	0.21133	-0.057373	0.000153	-0.001526
20.279	0.017242	0.079651	-0.016785	-0.005798	-0.000153	-0.007019	0.003357	-0.00473	0.14099	-0.041809	-0.00885	0.001221	0.034943	0.09613	-0.024567	-0.01236	0.039063	-0.069427	-0.15915	-0.048065	-0.0737	0.00351	0.2536	-0.20783	-0.092316	0.014343	-0.11948	-0.006256	0.29938	-0.1648	-0.001068	-0.004272
20.28	0.016479	0.043488	-0.030518	0.003815	0.007019	0.005951	-0.000153	-0.001068	0.13001	-0.045166	-0.020447	0.003815	0.072784	0.066223	-0.009155	-0.024261	0.024872	-0.096588	-0.1506	-0.028381	-0.1796	0.02533	0.16266	-0.071259	-0.12146	-0.00412	-0.44723	-0.000153	0.19165	-0.22659	-0.000916	-0.000916
20.281	0.013885	0.061188	-0.033112	0.015411	0.007629	0.013275	-0.001678	-0.003357	0.12161	-0.054321	-0.012512	-0.001526	0.077362	-0.009003	0.006866	-0.87326	0.015717	-0.08194	0.77606	0.002441	-0.10468	0.019989	0.091858	0.13428	-0.077515	-0.014954	0.10635	-0.002594	-0.074921	-0.15808	-0.000763	-0.00885
20.282	0.018616	0.11658	-0.041199	0.002136	0.000305	0.009308	0.002289	-0.000763	0.12283	-0.06134	0.001831	0.004883	0.062256	-0.13153	0.007019	0.54977	0.016937	-0.083618	0.19043	0.072632	-0.046997	0.056305	-0.078735	0.22293	-0.14221	-0.024261	0.67688	-0.002289	-0.14023	-0.10712	0.000305	-0.018311
20.283	0.02655	0.14999	-0.013428	0.006561	0.002747	0.016327	0.005646	-0.000916	0.12268	-0.041656	-0.00351	0.003662	0.02594	-0.23666	0.007629	0.28549	-0.00351	-0.031433	-0.16495	0.095062	0.044403	0.038147	-0.19562	0.35019	-0.066223	-0.015564	0.78857	-0.009155	-0.006409	-0.040588	0	-0.009766
20.284	0.010681	0.15991	-0.03006	-0.00061	0.00061	0.015869	0.007935	0.003357	0.12116	-0.057678	0.002594	0.003662	0.055542	-0.25299	-0.014038	-0.14221	-0.006561	0.046844	-0.003204	-0.00351	0.098724	-0.054321	-0.12543	0.35934	0.052032	-0.007935	0.64133	-0.003357	0.12177	0.028687	-0.005341	-0.011292
20.285	0.005646	0.19531	-0.010376	0.006866	0.007477	0.003662	-0.008392	-0.005188	0.11734	-0.056	0.010834	0.006561	0.097809	-0.1059	-0.009918	-0.027771	0.001984	0.033569	0.37033	-0.026855	0.22659	-0.07431	-0.080414	0.17975	0.077362	0.002747	0.50781	-0.001678	0.021362	-0.073547	-0.000305	-0.017242
20.286	0.019379	0.16861	0.002747	-0.001831	0.011139	0.023804	-0.014343	0.007629	0.10712	-0.025024	0.011444	0.000916	0.061493	0.029907	-0.010834	0.42328	0.00824	-0.016174	0.29678	-0.010681	0.04364	-0.047607	-0.096893	0.032501	0.039825	0.000458	-0.37521	-0.000763	-0.0914	-0.10117	0	-0.012512
20.287	0.010071	0.16037	-0.039063	0.00412	0.000305	0.037994	0.001373	0.002136	0.098267	-0.00061	0.009308	0.002747	0.010529	0.051117	-0.002289	0.066833	-0.010376	-0.096283	0.23926	0.015106	-0.36468	0.040131	-0.10452	-0.002136	0.058289	-0.003204	-1.05	-0.002441	-0.05661	0.002594	0.001373	-0.014496
20.288	0.012817	0.1619	-0.025482	-0.000305	-0.014343	0.029144	-0.003204	0.000305	0.11017	0.024567	0.009613	0.00412	0.060272	0.07019	-0.010376	-0.058746	-0.023041	-0.17654	0.20416	-0.007324	-0.33691	0.022736	-0.013428	-0.039215	0.18372	-0.007629	-0.81329	-0.000763	-0.082397	0.066833	0.006104	-0.011139
20.289	0.00885	0.20355	-0.029144	0.009613	-0.039673	0.028839	-0.006561	0.002899	0.10819	0.015564	0.013885	0.000153	0.080109	0.043793	-0.011292	-0.027008	-0.021057	-0.17425	0.54138	-0.06897	-0.081024	0.071869	0.14236	0.10254	0.28473	-0.010071	-0.34042	-0.001526	-0.059357	0.10498	0.001984	-0.009308
20.29	0.009155	0.24612	-0.048828	-0.001221	-0.002136	0.017548	-0.013733	-0.00473	0.10864	0.014801	0.016174	0.002441	0.069275	0.029907	-0.014038	-0.025482	-0.024719	-0.18295	0.18478	-0.12695	-0.02533	0.16327	0.11963	0.15137	0.1828	-0.011902	0.039368	-0.003204	-0.11719	0.089722	0.003357	-0.01358
20.291	0.007629	0.20172	-0.054169	-0.000916	0.005646	0.029449	-0.015411	-0.003052	0.09613	0.00412	0.013733	0.002289	0.053101	0.034485	-0.022125	-0.013275	-0.017242	-0.15732	-0.26138	-0.20706	-0.15732	0.20279	0.081482	0.20248	0.12253	-0.010223	0.071259	0.001831	-0.07431	0.050659	-0.00061	-0.015564
20.292	0.012512	0.19333	-0.050507	0	0.004425	0.040894	-0.017548	-0.001984	0.092163	-0.009613	0.009003	-0.000916	0.062256	0.022125	-0.018616	-0.015869	-0.002747	-0.12039	-0.39566	-0.23193	-0.18097	0.18448	-0.048065	0.20187	0.089111	-0.013428	-0.021057	-0.003662	-0.054626	0.090027	0.006561	-0.006866
20.293	0.01709	0.18204	-0.039063	-0.017548	0.019836	0.016022	-0.02533	0.006409	0.091553	-0.014343	0.013123	0.005646	0.025635	0.003204	-0.003662	-0.0177	-0.007324	-0.16266	-0.24033	-0.12192	0.13641	0.046082	-0.044708	0.14297	0.088654	-0.007477	-0.1326	-0.000763	-0.070343	0.097351	0	-0.005951
20.294	0.012054	0.19836	-0.023041	0.003357	0.006256	-0.007629	-0.027161	0.003357	0.07843	-0.026093	0.010529	0.002594	0.037231	0.032349	-0.020752	-0.014343	0.006561	-0.10529	-0.16342	-0.012054	0.27206	-0.045319	0.018768	0.066681	0.086212	-0.011597	-0.12573	-0.002136	-0.045166	0.049133	0.000916	-0.005951
20.295	0.006104	0.18723	-0.066376	0.010376	0.013885	-0.015411	-0.023193	-0.012054	0.076447	-0.025787	0.008698	-0.000305	0.033722	0.048523	-0.014496	-0.020294	0.006409	-0.0737	0.011597	0.14023	0.13763	0	0.057068	-0.13916	0.070343	-0.014343	-0.083923	0.004425	-0.059814	-0.16525	0.002747	-0.005798
20.296	0.013733	0.12955	-0.058746	0.005798	-0.00824	0.020447	-0.0177	0.006409	0.066833	-0.022125	0.014343	0.000458	0.043182	0.024719	-0.004425	-0.015564	-0.008392	-0.081482	-0.066681	0.29144	-0.088348	0.058289	0.11887	-0.40787	0.048981	-0.018005	-0.026703	-0.003357	-0.083466	-0.35172	0.001984	-0.008698
20.297	0.006714	0.099945	-0.063782	-0.007935	-0.024872	0.029755	-0.009003	0.012665	0.065002	-0.015717	0.005341	0.005646	0.049896	0.049896	-0.01236	-0.008545	-0.007782	-0.13016	0.042114	0.30609	-0.14725	-0.024261	0.17624	-0.29633	0.036774	-0.015259	0.019531	-0.003967	-0.075531	-0.40939	-0.001984	-0.010376
20.298	0.006409	0.10437	-0.036469	-0.00412	-0.024567	0.016937	-0.00946	-0.001831	0.06424	-0.028839	0.010223	0.00061	0.050354	0.045166	-0.018311	-0.016174	-0.025177	-0.10407	-0.28458	0.25742	-0.010223	-0.063934	0.14481	-0.041046	0.047913	-0.007782	0.070343	-0.001984	-0.093079	-0.13977	-0.000916	-0.011749
20.299	0.013885	0.098114	0.03067	0.00473	0.019073	0.007324	-0.023956	-0.001373	0.073853	-0.015869	0.012512	0.004883	0.053406	0.03067	-0.008392	-0.002594	-0.046997	-0.070953	-0.29892	0.033569	0.12604	0.000305	0.14679	0.03479	0.016632	-0.003967	0.077972	-0.005951	-0.083466	0.000458	-0.000916	-0.011597
